# xmcd
#
# Track frame offsets: 
#        150
#        20223
#        32584
#        48074
#        69393
#        83743
#        98257
#        120611
#        137319
#        151547
#        170532
#        185377
#        200169
#        210535
#        227792
#        245264
#
# Disc length: 3478 seconds
#
# Revision: 1
# Processed by: cddbd v1.5.2PL0 Copyright (c) Steve Scherf et al.
# Submitted via: ExactAudioCopyFreeDBPlugin 1.0
#
DISCID=c10d9410
DTITLE=Tom Ball and Kenny Sultan - 20th Anniversary Live
DYEAR=1995
DGENRE=Blues
TTITLE0=Your Red Wagon
TTITLE1=Filthy Rich
TTITLE2=Honey Bee
TTITLE3=He's In The Jailhouse
TTITLE4=All Talk And No Action
TTITLE5=Dallas Rag, Harlem Rag
TTITLE6=One Monkey Don't Stop The Show
TTITLE7=Nightcrawler
TTITLE8=Fishin' Blues
TTITLE9=Berceuse: Cancion De Cuna
TTITLE10=Automobile Mechanic
TTITLE11=Tired As A Man Can Be
TTITLE12=You Can't Stop Father Time
TTITLE13=It Should've Been Me
TTITLE14=Kidney Stew
TTITLE15=Perfect Woman
EXTD=
EXTT0=
EXTT1=
EXTT2=
EXTT3=
EXTT4=
EXTT5=
EXTT6=
EXTT7=
EXTT8=
EXTT9=
EXTT10=
EXTT11=
EXTT12=
EXTT13=
EXTT14=
EXTT15=
PLAYORDER=
